<?xml version="1.0" encoding="UTF-8" standalone="no"?>
<svg
   xmlns:dc="http://purl.org/dc/elements/1.1/"
   xmlns:cc="http://creativecommons.org/ns#"
   xmlns:rdf="http://www.w3.org/1999/02/22-rdf-syntax-ns#"
   xmlns:svg="http://www.w3.org/2000/svg"
   xmlns="http://www.w3.org/2000/svg"
   xmlns:sodipodi="http://sodipodi.sourceforge.net/DTD/sodipodi-0.dtd"
   xmlns:inkscape="http://www.inkscape.org/namespaces/inkscape"
   width="240"
   height="74"
   viewBox="0 0 240 74"
   fill="none"
   version="1.1"
   id="svg38"
   sodipodi:docname="logo-happy.svg"
   inkscape:version="1.0 (4035a4fb49, 2020-05-01)">
  <metadata
     id="metadata44">
    <rdf:RDF>
      <cc:Work
         rdf:about="">
        <dc:format>image/svg+xml</dc:format>
        <dc:type
           rdf:resource="http://purl.org/dc/dcmitype/StillImage" />
        <dc:title />
      </cc:Work>
    </rdf:RDF>
  </metadata>
  <defs
     id="defs42" />
  <sodipodi:namedview
     inkscape:document-rotation="0"
     pagecolor="#ffffff"
     bordercolor="#666666"
     borderopacity="1"
     objecttolerance="10"
     gridtolerance="10"
     guidetolerance="10"
     inkscape:pageopacity="0"
     inkscape:pageshadow="2"
     inkscape:window-width="1920"
     inkscape:window-height="1017"
     id="namedview40"
     showgrid="false"
     inkscape:pagecheckerboard="true"
     inkscape:zoom="4.4791667"
     inkscape:cx="77.023256"
     inkscape:cy="37"
     inkscape:window-x="-8"
     inkscape:window-y="-8"
     inkscape:window-maximized="1"
     inkscape:current-layer="svg38" />
  <path
     fill-rule="evenodd"
     clip-rule="evenodd"
     d="M105.488 22.7864C103.168 22.7864 100.414 23.2783 97.4059 26.7662V17.0051C97.4059 14.5392 95.4046 12.5333 92.9443 12.5333C90.484 12.5333 88.4827 14.5392 88.4827 17.0051V48.8375C88.4827 51.3033 90.484 53.3092 92.9443 53.3092C95.4046 53.3092 97.4059 51.3033 97.4059 48.8375V36.4827C97.4059 32.9309 99.0886 30.9697 102.154 30.9697C105.156 30.9697 106.737 32.8734 106.737 36.4827V48.8375C106.737 51.3033 108.738 53.3092 111.199 53.3092C113.659 53.3092 115.66 51.3033 115.66 48.8375V33.8891C115.654 26.9387 111.855 22.7864 105.488 22.7864ZM131.111 23.0037C127.478 23.0037 124.597 23.4764 121.773 24.5369C120.307 25.0863 119.326 26.5044 119.326 28.0632C119.326 30.1457 120.977 31.7747 123.086 31.7747C123.52 31.7747 123.883 31.7108 124.38 31.5447C126.095 31.0081 127.905 30.7526 129.925 30.7526C134.718 30.7526 135.738 33.4037 135.751 35.646C134.087 35.103 131.99 34.6047 129.065 34.6047C121.442 34.6047 117.069 38.099 117.069 44.1998V44.3084C117.069 49.8214 121.2 53.5266 127.344 53.5266C130.805 53.5266 133.578 52.4725 135.789 50.3133C136.165 51.8912 137.676 53.3157 139.996 53.3157C142.437 53.3157 144.349 51.4248 144.349 49.0101V35.8312C144.349 31.6853 143.266 28.4912 141.118 26.3447C138.9 24.128 135.534 23.0037 131.111 23.0037ZM129.817 47.1192C127.287 47.1192 125.719 45.9182 125.719 43.9826V43.874C125.719 41.5678 127.644 40.2519 131.003 40.2519C132.723 40.2519 134.438 40.5904 135.859 41.2037V42.4238C135.859 45.1836 133.374 47.1192 129.817 47.1192ZM156.306 26.8433C158.613 24.1155 161.456 22.7867 164.974 22.7867C171.686 22.7867 178.474 28.0442 178.474 38.0993V38.2079C178.474 42.8393 177.053 46.7617 174.369 49.5597C171.915 52.1214 168.582 53.5268 164.974 53.5268C161.501 53.5268 158.741 52.3386 156.351 49.8089V57.4747C156.351 59.9405 154.349 61.9464 151.889 61.9464C149.429 61.9464 147.427 59.9405 147.427 57.4747V27.4757C147.427 25.0098 149.429 23.0039 151.889 23.0039C154.139 23.0039 156 24.6777 156.306 26.8433ZM169.557 38.0993C169.557 33.7617 166.683 30.4845 162.871 30.4845C159.034 30.4845 156.242 33.685 156.242 38.0993V38.2079C156.242 42.6221 159.028 45.8226 162.871 45.8226C166.746 45.8226 169.557 42.6221 169.557 38.2079V38.0993ZM198.08 22.7867C194.561 22.7867 191.719 24.1155 189.411 26.8433C189.105 24.6777 187.244 23.0039 184.994 23.0039C182.534 23.0039 180.533 25.0098 180.533 27.4757V57.4747C180.533 59.9405 182.534 61.9464 184.994 61.9464C187.455 61.9464 189.456 59.9405 189.456 57.4747V49.8089C191.846 52.3386 194.606 53.5268 198.08 53.5268C201.687 53.5268 205.021 52.1214 207.475 49.5597C210.158 46.7617 211.579 42.8393 211.579 38.2079V38.0993C211.579 28.0442 204.791 22.7867 198.08 22.7867ZM195.976 30.4845C199.788 30.4845 202.662 33.7617 202.662 38.0993V38.2079C202.662 42.6221 199.852 45.8226 195.976 45.8226C192.133 45.8226 189.348 42.6221 189.348 38.2079V38.0993C189.348 33.685 192.139 30.4845 195.976 30.4845ZM231.485 26.3768C232.313 24.1664 233.792 23.0038 235.761 23.0038C238.139 23.0038 240.006 24.8244 240 27.137C240 27.8077 239.783 28.7787 239.592 29.2259L229.528 53.45C226.998 59.589 224.359 61.7674 219.445 61.7674C217.711 61.7674 216.379 61.5374 214.849 60.9881C213.797 60.6048 212.026 59.6082 212.026 57.2446C212.026 54.9193 213.855 53.533 215.62 53.533C216.321 53.533 216.742 53.6544 217.08 53.7694C217.775 53.9866 218.157 54.076 218.686 54.076C220.025 54.076 220.586 53.8588 221.261 52.562L221.465 52.0765L211.675 29.3409C211.452 28.7787 211.216 27.9099 211.216 27.303C211.216 24.85 213.109 22.9974 215.62 22.9974C217.692 22.9974 219.094 24.0834 219.897 26.3193L225.793 42.2067L231.485 26.3768Z"
     fill="white"
     id="path28"
     style="fill:#ffd666;fill-opacity:1" />
  <path
     d="M63.9739 18.7786V44.9078C63.9739 55.2784 55.5339 63.6863 45.1237 63.6863H43.217L33.4805 73.3795C33.0992 73.7594 32.5717 74 31.987 74C31.4467 74 30.9574 73.8037 30.5824 73.4745L30.4172 73.3099L30.4108 73.3036L20.7569 63.6863H18.8439C8.44003 63.6863 0 55.2784 0 44.9078V18.7786C0 8.40794 8.44003 0 18.8503 0H45.1237C55.5339 0 63.9739 8.40794 63.9739 18.7786Z"
     fill="#FFD666"
     id="path30" />
  <path
     d="M14.895 36.197C13.0392 36.197 11.9814 38.3036 13.0582 39.8248C17.2449 45.7501 24.1677 49.6133 31.99 49.6133C39.8123 49.6133 46.7289 45.7437 50.9155 39.8248C51.9923 38.3036 50.9345 36.197 49.0787 36.197H14.895Z"
     fill="white"
     id="path32" />
  <path
     d="M25.764 27.2298H14.5658V21.6036C14.5658 18.4977 17.074 15.9774 20.1649 15.9774C23.2558 15.9774 25.764 18.4977 25.764 21.6036V27.2298Z"
     fill="white"
     id="path34" />
  <path
     d="M49.4148 27.2298H38.2166V21.6036C38.2166 18.4977 40.7248 15.9774 43.8157 15.9774C46.9066 15.9774 49.4148 18.4977 49.4148 21.6036V27.2298Z"
     fill="white"
     id="path36" />
  <path
     id="path877"
     style="fill:#03c6c8;fill-opacity:1;stroke-width:0.223256"
     d="M 197.72461 22.916016 C 195.10053 22.979275 192.64614 23.959664 190.59961 25.830078 L 189.35938 26.962891 L 189.09766 26.171875 C 187.83112 22.334217 182.52142 22.149245 180.95898 25.888672 C 180.65795 26.609074 180.61514 28.751831 180.61914 42.517578 C 180.62376 57.403779 180.6469 58.373603 181.03516 59.214844 C 181.48184 60.182683 182.13156 60.850585 183.18164 61.423828 C 183.65102 61.680062 184.26622 61.76744 185.23828 61.71875 C 186.38525 61.661309 186.77153 61.532795 187.4707 60.976562 C 187.93573 60.606601 188.54209 59.861074 188.81836 59.320312 C 189.28799 58.401194 189.32031 58.056765 189.32031 54.03125 C 189.32031 51.66285 189.40215 49.724609 189.50195 49.724609 C 189.60176 49.724609 189.97623 50.030886 190.33398 50.404297 C 192.14307 52.292579 194.81169 53.320325 197.92969 53.328125 C 201.78258 53.337817 204.48299 52.223329 207.18555 49.511719 C 208.40231 48.290892 209.08844 47.368119 209.68164 46.154297 C 211.02914 43.396971 211.30164 42.052109 211.30664 38.117188 C 211.31073 35.105532 211.24409 34.437722 210.78906 32.980469 C 209.54191 28.986364 207.19966 26.019891 204.04688 24.441406 C 201.90949 23.3713 199.76556 22.866814 197.72461 22.916016 z M 165.21094 22.933594 C 162.31819 22.836518 159.75876 23.779218 157.64062 25.740234 C 156.36504 26.921199 156.05664 27.026443 156.05664 26.279297 C 156.05664 25.623092 154.75768 24.080087 153.78906 23.585938 C 153.05816 23.213073 152.57194 23.129685 151.55664 23.203125 C 150.04835 23.312225 148.9076 24.073246 148.07812 25.523438 L 147.58008 26.394531 L 147.57617 42.400391 C 147.57401 51.773279 147.65926 58.630307 147.78125 58.951172 C 148.0922 59.769034 149.36922 61.13713 150.13477 61.470703 L 150.13672 61.470703 C 152.42485 62.467705 155.38688 61.081513 156.04688 58.705078 C 156.17371 58.248426 156.27861 56.039219 156.2793 53.796875 L 156.2793 49.720703 L 157.51562 50.726562 C 159.81739 52.601381 161.891 53.330078 164.93555 53.330078 C 168.65354 53.330078 171.49105 52.178788 174.01367 49.644531 C 176.64489 47.001189 178.02049 43.725205 178.30273 39.4375 C 178.64718 34.20478 177.07843 29.657735 173.87305 26.597656 C 172.09136 24.896727 170.41068 23.941504 168.21094 23.378906 C 167.17646 23.114331 166.17519 22.965952 165.21094 22.933594 z M 196.21484 30.419922 C 197.07282 30.44408 197.93591 30.646668 198.75391 31.046875 C 200.23104 31.769565 201.22352 32.82777 202.02344 34.533203 C 202.54004 35.634695 202.60361 36.043657 202.59961 38.228516 C 202.59508 40.445856 202.53508 40.805306 201.98242 41.939453 C 201.15554 43.636346 199.5291 45.128669 198.01562 45.578125 C 194.25129 46.69601 190.75601 44.724712 189.62891 40.847656 C 189.13408 39.145502 189.2849 35.937494 189.92773 34.505859 C 191.10595 31.881879 193.64091 30.347448 196.21484 30.419922 z M 162.86523 30.462891 C 166.16278 30.485429 168.46712 32.411625 169.35938 35.890625 C 170.43317 40.077402 168.38111 44.567049 164.92383 45.59375 C 163.02998 46.156165 161.52865 46.008636 159.71875 45.083984 C 155.60918 42.984465 154.88728 35.727955 158.43555 32.179688 C 159.64043 30.974799 160.99192 30.450091 162.86523 30.462891 z " />
  <path
     id="path835"
     d="m 125.69302,53.276782 c -3.61442,-0.418355 -6.37298,-2.297622 -7.77709,-5.298144 -0.53001,-1.132601 -0.59253,-1.527532 -0.58933,-3.722824 0.003,-2.031204 0.0917,-2.675902 0.51328,-3.728737 2.0081,-5.014966 9.11374,-7.059984 17.2857,-4.97486 0.59114,0.150833 0.61382,0.124646 0.61028,-0.704758 -0.007,-1.681509 -1.43645,-3.348895 -3.3189,-3.871787 -1.41324,-0.392557 -5.00604,-0.268829 -7.26561,0.250212 -2.5995,0.597125 -3.47624,0.469198 -4.61948,-0.674037 -1.44351,-1.443518 -1.44814,-3.519523 -0.011,-4.948481 1.44219,-1.433997 5.6625,-2.445226 10.20504,-2.445226 7.19939,0 11.34204,2.583316 12.99956,8.106384 0.44905,1.496303 0.68875,17.605427 0.28222,18.967084 -1.0367,3.472399 -6.1914,3.994973 -7.78897,0.789634 l -0.41132,-0.825272 -1.20601,0.910031 c -2.45928,1.855718 -5.41264,2.575392 -8.90834,2.170781 z m 7.58205,-6.847751 c 1.7124,-0.865181 2.52726,-2.073595 2.64499,-3.922395 l 0.0895,-1.405109 -1.15241,-0.372185 c -3.61387,-1.167151 -7.66216,-0.510004 -8.80802,1.429783 -0.53536,0.906285 -0.4612,2.654909 0.15142,3.570651 1.09476,1.636445 4.54472,1.977441 7.07455,0.699255 z"
     style="fill:#03c6c8;stroke-width:0.223256" />
</svg>
